<svg width="200" height="225" xmlns="http://www.w3.org/2000/svg">
 <style type="text/css">.st0{fill:#0063A6;}</style>

 <g>
  <title>background</title>
  <rect x="-1" y="-1" width="202" height="227" id="canvas_background" fill="none"/>
 </g>
 <g>
  <title>Layer 1</title>
  <g id="XMLID_23_">
   <path fill="#482816" id="XMLID_25_" class="st0" d="m18.94305,217.884781l-1.40111,-3.362686l-6.63195,0l-1.40112,3.362686l-2.70882,0l5.97809,-14.104568l2.89564,0l5.97809,14.104568l-2.70882,0zm-7.00558,-5.604462l4.67039,0l-2.3352,-5.511047l-2.33519,5.511047z"/>
   <path fill="#482816" id="XMLID_28_" class="st0" d="m34.63554,203.686813l0,8.873734c0,1.587906 -0.560452,2.895645 -1.587929,3.923126c-1.027493,1.027466 -2.4286,1.587936 -4.203341,1.587936c-1.86816,0 -3.26927,-0.560471 -4.296762,-1.587936s-1.49452,-2.33522 -1.49452,-3.923126l0,-8.873734l2.522013,0l0,8.500107c0,1.12088 0.28022,1.961548 0.747259,2.615402c0.560438,0.65387 1.307711,1.027481 2.428598,1.027481c1.120892,0 1.961559,-0.280212 2.4286,-1.027481c0.56044,-0.653854 0.747259,-1.494522 0.747259,-2.615402l0,-8.500107l2.708818,0l0.000004,0z"/>
   <path fill="#482816" id="XMLID_30_" class="st0" d="m40.987259,217.884781l0,-11.862778l-3.829708,0l0,-2.241791l10.274837,0l0,2.241791l-3.829708,0l0,11.862778l-2.615421,0z"/>
   <path fill="#482816" id="XMLID_32_" class="st0" d="m61.72377,216.016617c-1.401112,1.401123 -3.175861,2.054977 -5.324242,2.054977c-2.14838,0 -4.016529,-0.653839 -5.324238,-2.054977c-1.401112,-1.401108 -2.05497,-3.082458 -2.05497,-5.23082s0.653858,-3.829712 2.05497,-5.23082c1.401119,-1.401123 3.175858,-2.054993 5.324238,-2.054993c2.14838,0 4.016533,0.65387 5.324242,2.054993c1.401112,1.401108 2.05497,3.082428 2.05497,5.23082s-0.653858,3.829727 -2.05497,5.23082zm-8.87373,-1.587921c0.934071,0.934082 2.05497,1.401108 3.549488,1.401108s2.615421,-0.467026 3.549492,-1.401108c0.934078,-0.934082 1.401108,-2.148376 1.401108,-3.642899s-0.46703,-2.708832 -1.401108,-3.642899c-0.934071,-0.934082 -2.05497,-1.401123 -3.549492,-1.401123s-2.615417,0.467041 -3.549488,1.401123s-1.401119,2.148376 -1.401119,3.642899s0.560448,2.708817 1.401119,3.642899z"/>
   <path fill="#482816" id="XMLID_35_" class="st0" d="m73.30632,217.884781l-4.10994,-8.406693l0,8.406693l-2.522003,0l0,-14.104568l2.522003,0l4.857201,10.181442l4.857201,-10.181442l2.522011,0l0,14.104568l-2.522011,0l0,-8.593506l-4.203339,8.593506l-1.401123,0z"/>
   <path fill="#482816" id="XMLID_37_" class="st0" d="m95.537354,217.884781l-1.401123,-3.362686l-6.631943,0l-1.401115,3.362686l-2.708809,0l5.978065,-14.104568l2.895653,0l5.978088,14.104568l-2.708817,0zm-7.098991,-5.604462l4.670387,0l-2.335197,-5.511063l-2.33519,5.511063z"/>
   <path fill="#482816" id="XMLID_40_" class="st0" d="m101.982483,217.884781l0,-11.862778l-3.82972,0l0,-2.241791l10.274826,0l0,2.241791l-3.829697,0l0,11.862778l-2.61541,0z"/>
   <path fill="#482816" id="XMLID_42_" class="st0" d="m113.565033,217.884781l-2.522011,0l0,-14.104568l2.522011,0l0,14.104568z"/>
   <path fill="#482816" id="XMLID_44_" class="st0" d="m116.273857,213.961655l2.522003,0c0,0.653839 0.280228,1.120895 0.747261,1.401108c0.467041,0.280212 1.027481,0.467041 1.77475,0.467041c1.681328,0 2.522011,-0.653839 2.522011,-1.868149c0,-0.373611 -0.186821,-0.747253 -0.560463,-1.12088c-0.373627,-0.280228 -0.840668,-0.560471 -1.307686,-0.747269c-0.560463,-0.186829 -1.120903,-0.373642 -1.774773,-0.653854s-1.214287,-0.467041 -1.774727,-0.747253c-0.560455,-0.280243 -1.027504,-0.65387 -1.307716,-1.21431c-0.373634,-0.56044 -0.560455,-1.214294 -0.560455,-1.961563c0,-1.307709 0.467041,-2.33519 1.307716,-2.989029c0.840675,-0.65387 2.05497,-1.027496 3.456085,-1.027496c0.467033,0 0.840668,0 1.307709,0.093414s0.84066,0.186798 1.214294,0.373627c0.467041,0.186813 0.747261,0.467041 1.120895,0.747269s0.56044,0.653839 0.747269,1.214294c0.186806,0.467041 0.280197,1.120895 0.280197,1.774719l-2.521996,0c0,-1.214279 -0.653854,-1.868149 -2.054962,-1.868149c-1.494507,0 -2.241783,0.560471 -2.241783,1.587952c0,0.373627 0.093407,0.653839 0.373627,0.934067c0.280228,0.280228 0.653847,0.467041 1.027489,0.653854c0.467041,0.186798 0.934074,0.373627 1.401115,0.560455c0.467033,0.186813 1.027473,0.373627 1.587929,0.560455c0.560455,0.186813 1.027496,0.467026 1.401115,0.747253c0.467041,0.280212 0.747269,0.653854 1.027481,1.214294c0.28022,0.467041 0.373634,1.027481 0.373634,1.681335c0,1.307709 -0.467041,2.428604 -1.401115,3.175858c-0.934074,0.747253 -2.148369,1.120911 -3.642899,1.120911c-1.587936,0 -2.89563,-0.373657 -3.736313,-1.027496c-0.840668,-0.653854 -1.307701,-1.681351 -1.307701,-3.082458l0.000008,0z"/>
   <path fill="#482816" id="XMLID_46_" class="st0" d="m131.779541,205.928604l0,3.5495l5.23082,0l0,2.241776l-5.23082,0l0,3.736313l6.258301,0l0,2.241776l-8.873734,0l0,-14.104553l8.873734,0l0,2.241791l-6.258301,0l0,0.093399z"/>
   <path fill="#482816" id="XMLID_48_" class="st0" d="m153.169891,217.884781l-3.175858,0l-4.296753,-5.044022l0,0l-1.868164,0l0,5.044022l-2.522003,0l0,-14.104568l4.483582,0c1.587936,0 2.802246,0.373642 3.736298,1.214294s1.307724,1.961578 1.307724,3.269257c0,1.868164 -0.747284,3.175873 -2.33519,4.016541l4.67038,5.604462l-0.000015,0.000015zm-9.340775,-11.956177l0,4.576996l2.054977,0c0.653839,0 1.12088,-0.186829 1.587921,-0.560455c0.467041,-0.373642 0.65387,-0.934082 0.65387,-1.77475c0,-0.840683 -0.186829,-1.401108 -0.65387,-1.77475c-0.467041,-0.373642 -1.027466,-0.56044 -1.587921,-0.56044l-2.054977,0l0,0.093399z"/>
   <path fill="#482816" id="XMLID_51_" class="st0" d="m157.37323,217.884781l-2.522003,0l0,-14.104568l2.522003,0l0,14.104568z"/>
   <path fill="#482816" id="XMLID_53_" class="st0" d="m163.444733,207.890152l0,9.90123l-2.522003,0l0,-14.104568l2.615417,0l7.379196,9.90123l0,-9.90123l2.522034,0l0,14.104568l-2.522034,0l-7.47261,-9.90123z"/>
   <path fill="#482816" id="XMLID_55_" class="st0" d="m180.071304,207.142899c-0.934082,0.934067 -1.307724,2.148376 -1.307724,3.642883s0.467056,2.708832 1.307724,3.642914c0.840668,0.934067 2.054962,1.401108 3.456085,1.401108c1.120895,0 2.054962,-0.280212 2.802231,-0.934067s1.307693,-1.401123 1.587921,-2.33519l-3.736313,0l0,-2.241791l6.818771,0c0,2.33519 -0.653854,4.296738 -2.054977,5.697861s-3.175858,2.054977 -5.417633,2.054977c-2.148376,0 -3.923126,-0.653854 -5.230835,-2.054977c-1.401108,-1.401123 -2.054977,-3.082474 -2.054977,-5.230835s0.653854,-3.829697 2.054977,-5.23082c1.401123,-1.401108 3.175873,-2.054977 5.230835,-2.054977c1.587921,0 2.89563,0.280228 3.923111,0.934082c1.120895,0.65387 1.961578,1.494507 2.522003,2.522018l-2.241791,1.027481c-0.840668,-1.494522 -2.241776,-2.33522 -4.203339,-2.33522c-1.401108,0.093414 -2.615417,0.560471 -3.456085,1.494537l0.000015,0.000015z"/>
  </g>
  <g id="XMLID_24_">
   <path fill="#0063a6" id="XMLID_21_" d="m47.400002,6.9l-1.600002,6.6c-6.700001,0 -13.399998,0 -20.099998,0.1c-4,0 -4,0 -4,1.599998c0.099998,1.900002 0.099998,1.799999 4.199999,1.799999c6,0 12.1,0.1 18.699999,0.6c-10.599998,1.4 -10.299999,10.1 -12.099998,17.100002c-4.5,17.200001 -8.9,34.399998 -13.299999,51.600002c-1.1,4.299995 -1.5,8.399986 3.199999,11.199997c0.800001,0.5 1.200001,2.300003 1,3.300003c-3.799999,14.899986 -7.7,29.699997 -11.599998,44.699997l-7.7,0l0,-84.299995c3.9,0 10.399999,0.299999 14.100002,0c1.299999,-0.100002 1.299999,0 1.199999,-1.799999c0.1,-1.700001 0.1,-1.700001 -1.299999,-1.800003c-3.5,-0.199997 -10,0 -14,0c-0.1,-2.299999 -0.4,-4.199997 -0.4,-6.199997c0,-13.100002 0,-26.100004 0,-39.200003c0,-1.799999 -0.3,-3.5 -0.5,-5.3c14.8,0 29.500003,0 44.2,0l0,-0.000003z"/>
   <path fill="#0063a6" id="XMLID_20_" d="m194.600006,6.9c-0.099991,14.800001 -0.199997,29.6 -0.300003,44.500001c0,1.899998 0,3.799999 0,6c-8.799988,0 -17,0 -25.799988,0c0.200012,-1.300003 0.099991,-2.5 0.399994,-3.700001c2.600006,-10.400002 5.800003,-20.700005 7.800003,-31.200003c1.300003,-6.5 1,-5.700001 7.099991,-5.6c5.900009,0.1 5.900009,0.300001 6,-1.9c0.100006,-1.8 0,-1.8 -6,-1.5c-1.599991,0.1 -4.299988,0.1 -4.199997,-0.2c0.400009,-2.3 0.799988,-4.3 1.199997,-6.4c4.599991,0 9.199997,0 13.800003,0l0,0.000002z"/>
   <path fill="#0063a6" id="XMLID_19_" d="m90.599998,6.9c-0.5,2 -1,4.1 -1.5,6.3c-13,0 -25.799999,0 -38.899998,0c0.399998,-2.2 0.799999,-4.2 1.200001,-6.3c13,0 26.099998,0 39.199997,0z"/>
   <path fill="#0063a6" id="XMLID_18_" d="m133.699997,6.9c-0.5,2 -1,4.1 -1.5,6.3c-13,0 -25.799995,0 -39,0c0.400002,-2.2 0.800003,-4.3 1.200005,-6.3c13.199997,0 26.299995,0 39.299995,0z"/>
   <path fill="#0063a6" id="XMLID_17_" d="m176.899994,6.9c-0.5,2 -1.100021,4.1 -1.699997,6.3c-12.600021,0 -25.200012,0 -38.400024,0c0.300003,-2.3 0.600021,-4.3 0.900024,-6.3c13,0 26.100006,0 39.199997,0z"/>
   <path fill="#0063a6" id="XMLID_16_" d="m64.800003,78.400002c-7.800003,0 -14.600002,0 -22.000004,0c0.200001,-2.099998 0.100002,-3.700005 0.400002,-5.099998c2.5,-10.000004 5.099998,-19.900002 7.5,-29.900002c0.899998,-3.600002 2.599998,-5.300003 6.399998,-5c4.600002,0.299999 9.200005,0.199997 13.700005,0c1.399986,-0.100002 3.799995,-0.700001 4.099998,-1.700001c1.799995,-5.700001 3.099998,-11.5 4.699997,-18c-10.699997,0 -20.5,0 -30.199997,0c0,-0.400002 0,-0.700001 0,-1.1c12.399998,0 24.900002,0 38,0c-0.200005,1.199999 -0.200005,2.6 -0.5,3.900002c-2.700005,10.799997 -5.5,21.499998 -8.200005,32.299997c-0.699997,2.700001 -1.699997,4.5 -4.899986,3.900002c-1,-0.200001 -2,0 -2.900002,0c-7,0 -7,0 -6.900002,1.599998c0.100006,2.100002 0.5,2 6.700005,1.799999c1.799995,-0.099998 3.600006,0.100002 6.699997,0.100002c-0.799995,3.499996 -1.299995,6.499996 -2.099998,9.499996c-2.199997,8.700005 -4.5,17.300003 -6.5,26.100014c-0.900002,3.800003 -2.300003,5.300003 -6.5,5.099998c-8.799999,-0.400002 -20.5,-0.400002 -29.400002,-0.199997c-1.4,0 0.799999,3.100006 -0.799999,2c1.400002,-0.300003 -0.499998,1.900002 0.799999,1.900002c9.900002,0.099998 22.600002,-0.200005 33.400002,-0.200005c-1.600014,6.700005 -3.100002,12.800003 -4.600002,18.900002c-0.799999,3.199997 -1.799999,6.299995 -2.399998,9.499992c-1,5.099991 1.899998,8.800003 7.099998,8.800003c10.5,0.099991 20.900002,0.099991 31.400002,-0.100006c1.199997,0 3.199997,-1.300003 3.5,-2.300003c1.599998,-5.300003 2.699997,-10.699997 4.300003,-17.099998c-7.800003,0 -15,0 -22.900002,0c1.5,-6 2.600006,-10.900002 4.100006,-15.699997c0.300003,-0.900002 1.800003,-1.900002 2.700005,-1.900002c6,-0.199997 12,-0.099998 18.899994,-0.099998c-1.099998,4.400002 -2,8.199997 -2.799995,12.099998c-1.200005,5.599998 -1.099998,3.599998 0.799995,3.900002c3.300003,0.299995 2.700005,-1.700005 3.100006,-2.900002c1.399994,-4.199997 2.299995,-8.5 3.399994,-12.599998c12.900002,0 25.599998,0 38.300011,0c0,0.400002 0.100006,0.799995 0.100006,1.199997c-1.100006,0.200005 -2.199997,0.599998 -3.300003,0.599998c-6.699997,0.100014 -13.399994,0 -20.099998,0c-7.800003,0 -10.400002,2 -12.400002,9.600014c-2.099998,8.199997 -4.300003,16.399986 -6.199997,24.700005c-0.700005,2.799988 -1.800003,4 -4.900002,4c-13.599998,-0.200012 -27.099998,0 -40.700001,-0.200012c-1.400002,0 -4,0.099991 -5.600002,-0.199997c-1.099998,-0.200012 3.100002,-0.200012 2,0.199997c-1.299999,0.5 -6.599998,0 -7.899998,0c-11.700001,0.200012 -23.500002,0.099991 -35.500004,0.099991c0,-1.299988 -0.199999,-2.399979 0,-3.399979c3.400003,-13.300003 7,-26.500008 10.300001,-39.800003c0.799999,-3.300003 2.1,-4.5 5.599997,-4.399994c7.700005,0.300003 15.400005,-0.100006 23,0.200005c3.400005,0.099998 5.100002,-1 5.800003,-4.300003c0.700001,-5.099998 2,-9.899986 3.400005,-15.800003l-0.000031,-0.000015z"/>
   <path fill="#0063a6" id="XMLID_15_" d="m156.600006,101.800003c3.400009,-13.300003 6.600021,-25.900002 10,-38.500004c0.199997,-0.899998 1.800003,-2 2.800003,-2c8.100006,-0.200001 16.199997,-0.099998 24.600006,-0.099998c0,45.700001 0,90.900005 0,136.499996c-20.700012,0 -41.200012,0 -62.400009,0c0.799988,-3 1.299988,-5.800003 2.400009,-8.399994c0.399994,-0.900009 2.299988,-1.600006 3.5,-1.600006c5.399994,-0.199997 10.799988,0 16.200012,-0.099991c6.699997,-0.100006 9.899979,-2.5 11.5,-9c2.5,-9.5 4.799988,-19 7.399979,-29.100006c3.5,0 7.100021,0 10.600021,-0.100006c2.799988,0 2.799988,0 2.699997,-1.899994c0,-1.199997 0,-1.199997 -2.5,-1.5c-2.899994,-0.300003 -5.800003,-0.100006 -9.600021,-0.100006c1,-4.299988 1.900024,-8.199997 2.800003,-12c1.300003,-5.199997 2.800003,-10.399986 4,-15.599976c1.600021,-6.700012 -1.300003,-10.5 -8.199997,-10.600014c-4.199997,-0.099998 -8.5,0 -12.699997,0c-1.300003,0 -2.699997,-0.299988 -4,-0.399986c0,-0.5 0,-1 0,-1.5c1.399994,-0.200012 2.800003,-0.400002 4.300003,-0.400002c5.899979,-0.099998 11.799988,0.099991 17.699997,-0.099998c3.300003,-0.100014 3.300003,-0.200012 3.399994,-1.600014c0.100006,-1.699997 0.100006,-1.699997 -3.300003,-1.799988c-6.800003,-0.099998 -13.400009,-0.099998 -21.199997,-0.099998l0,-0.000008l0,-0.000008z"/>
   <path fill="#0063a6" id="XMLID_14_" d="m120.300003,63.299999c-13.700005,0 -25.5,0 -40,0c0.799995,-2.5 -0.400002,-2.200001 3,-2.099998c26.199997,0.5 52.5,-0.100002 79.5,-0.100002c-2.5,9.900002 -4.800003,19.400002 -7.400009,28.800003c-3.299988,11.900002 -3.399994,11.799995 -15.799988,11.799995c-8.300003,0 -16.600014,0 -25.700005,0c0.799995,-3.599998 1.299995,-6.599998 2.099998,-9.5c1.5,-5.5 1.699997,-4.599998 -1.199997,-4.599998c-3.400002,-0.699997 -2.5,0 -2.700005,0.800003c-0.799995,3.299995 -1.699997,9.299995 -2.599998,12.900002c-6.900002,0 -13.800003,0 -21.5,0c1.300003,-5.400002 2.400002,-10.800003 4.099998,-15.900002c0.5,-1.400002 3.200005,-2.599998 5,-2.700005c4.700005,-0.399986 9.5,-0.299995 14.200005,-0.099998c2.899986,0.099998 4.5,-0.699997 5.099998,-3.799995c1,-4.800003 2.400002,-9.600014 3.900002,-15.500004z"/>
   <path fill="#0063a6" id="XMLID_13_" d="m47.599998,189.800003c3.5,-13.600006 6.900002,-26.699997 10.300003,-40.100006c13,0 25.900002,0 39.400002,0c-3.5,13.5 -6.900002,26.699997 -10.300003,40.100006c-13,0 -25.799999,0 -39.400002,0z"/>
   <path fill="#0063a6" id="XMLID_12_" d="m14.7,149.600006c13.099999,0 25.899999,0 39.3,0c-3.400002,13.5 -6.799999,26.699997 -10.200001,40.099991c-13.000002,0 -26.000002,0 -39.399998,0c3.5,-13.300003 6.9,-26.599991 10.3,-40.099991l-0.000001,0z"/>
   <path fill="#0063a6" id="XMLID_11_" d="m131.199997,17.299999c-3.299995,12.900002 -6.5,25.400002 -9.899986,37.799999c-0.300003,1.100002 -2.199997,2.400002 -3.400002,2.400002c-11.699997,0.200001 -23.5,0.099998 -36.099998,0.099998c3.5,-13.599998 6.800003,-26.799999 10.199997,-40.299999c12.900002,0 25.700005,0 39.200005,0l-0.000015,0z"/>
   <path fill="#0063a6" id="XMLID_10_" d="m135.300003,17.200001c13,0 25.599991,0 39,0c-2.100006,8.199999 -4.100006,16 -6,23.799999c-0.300003,1.099998 -0.600006,2.200001 -0.900009,3.299999c-1.299988,4.299999 -1.399994,10.299999 -4.299988,12.5c-3,2.200001 -8.700012,0.799999 -13.300003,0.799999c-8,0.100002 -15.900009,0 -24.800003,0c3.5,-13.799999 6.899994,-26.999998 10.300003,-40.399998z"/>
   <path fill="#0063a6" id="XMLID_9_" d="m90.699997,190c3.600014,-13.899994 6.900002,-27.100006 10.400002,-40.399994c1.800003,0 3.599998,0 5.900002,0c-2.199997,8.599991 -4.300003,16.899994 -6.400002,25.199997c-2.400002,9.399994 0.099998,12.599991 9.900002,12.599991c6.199997,0 12.400002,0.100021 18.600006,0.100021c0.299988,0 0.599991,0.199997 1.399994,0.5c-0.600006,2.5 -1.100006,5.199997 -2,7.699997c-0.300003,0.900009 -1.699997,2 -2.599998,2c-12,0.100006 -24.099998,0.100006 -36,0.100006c-0.599998,-3.300003 0.299995,-4.699997 3.5,-4.400009c2.299995,0.200012 4.599998,-0.099991 6.799995,0c3.400002,0.100006 3.400002,0.100006 3.400002,-1.599991c0.900002,-1.699997 0.900002,-1.699997 -3.299995,-1.800003c-2.900002,0 -5.800003,0 -9.600014,0l0.000008,-0.000015z"/>
   <path fill="#0063a6" id="XMLID_8_" d="m123,167.399994c1.5,-6 2.699997,-10.800003 4.099998,-15.600021c0.300003,-1 1.799995,-2.199997 2.900002,-2.299988c3.199997,-0.299988 6.5,-0.099991 10.300003,-0.099991c-1.400009,5.599991 -2.600006,10.800003 -4,15.899979c-0.199997,0.800003 -1.100006,1.900024 -1.699997,2c-3.700012,0.200012 -7.300003,0.100021 -11.600014,0.100021l0.000008,0z"/>
   <path fill="#0063a6" id="XMLID_7_" d="m141.199997,145.600006c-4.300003,0 -8,0 -12.599991,0c1.5,-5.5 2.5,-10.699997 4.399994,-15.599991c0.5,-1.400009 3.600006,-2.100006 5.600006,-2.500008c2,-0.399986 4.099991,-0.099998 7.099991,-0.099998c-1.599991,6.599991 -3,12.299988 -4.5,18.199997z"/>
   <path fill="#0063a6" id="XMLID_6_" d="m42.599998,195.199997c-0.599998,2.699997 -0.599998,2.699997 -4.099998,2.699997c-10.6,0.200012 -21.1,0.200012 -31.7,0c-3,-0.099991 -3,-0.099991 -3,-2.199997c0.3,-2.399994 -1.2,-2.099991 2.5,-2.099991c11.8,0 23.599998,-0.100006 35.400001,-0.100006c1.5,0.100006 1.5,0.100006 0.899998,1.699997z"/>
   <path fill="#0063a6" id="XMLID_5_" d="m85.800003,195.300003c-0.300003,2.300003 -0.300003,2.300003 -4.200005,2.599991c-11.5,0.200012 -25.399998,-0.199997 -35.699997,-0.899994c1,-3.100006 1,-3.100006 3.299999,-3.199997c11.799999,-0.800003 23.700001,-0.100006 35.600002,-0.100006c1,0 1,0 1,1.600006z"/>
   <path fill="#0063a6" id="XMLID_4_" d="m139.699997,166.800003c1.400009,-5.600006 2.800003,-11.199997 4.300003,-17.100006c2.399994,0 4.800003,0 7.899994,0c-1.299988,5.199997 -2.199997,10.5 -4.199997,15.199997c-0.800003,1.700012 -4.5,2.200012 -6.800003,3.200012c-0.5,-0.400009 -0.799988,-0.800003 -1.199997,-1.300003z"/>
   <path fill="#0063a6" id="XMLID_3_" d="m157.800003,126.900002c-1.800003,6.799995 -2.699997,12.099998 -4.699997,16.900002c-0.600021,1.5 -4,0.899994 -6.300003,1.800003c-0.400009,-0.400009 -1.100006,0 -1.5,-0.400009c1.5,-5.5 2.699997,-11.200012 4.699997,-16.5c0.5,-1.100006 4.199997,-1.000008 7.800003,-1.800011l0,0.000015z"/>
   <path fill="#0063a6" id="XMLID_2_" d="m4.1,176c0,-9.399994 0,-17.699997 0,-26.300003c2.2,0 4.1,0 6.6,0c-2.2,8.600006 -4.3,17 -6.6,26.300003z"/>
  </g>
 </g>
</svg>